<?xml version="1.0" encoding="UTF-8"?><svg xmlns="http://www.w3.org/2000/svg" viewBox="0 0 820 820"><g><path fill="currentColor" stroke="currentColor" stroke-miterlimit="10" d="M691.77,596.02c-1.8-1.35-3.91-2.03-6.3-2.03h-172.61c-2.99,0-4.5-.9-4.5-2.7,0-1.19.47-2.54,1.37-4.03l160.54-234.3c2.39-3.31,4.19-7.49,5.38-12.6,1.19-5.09,1.8-9.75,1.8-13.93,0-12.29-3.22-20.3-9.66-24.06-6.46-3.76-15.98-5.63-28.56-5.63h-160.09c-2.41,0-4.5.69-6.3,2.04-1.8,1.37-2.7,3.27-2.7,5.69v21.41c0,2.42.9,4.31,2.7,5.68,1.8,1.37,3.89,2.04,6.3,2.04h149.29c2.99,0,4.5,1.06,4.5,3.15,0,1.19-.45,2.41-1.35,3.6l-160.99,233.93c-2.41,3.29-4.12,7.48-5.18,12.57-1.06,5.11-1.58,9.59-1.58,13.48,0,11.96,2.63,20.04,7.88,24.25,5.24,4.19,15.06,6.27,29.46,6.27h184.29c2.39,0,4.5-.74,6.3-2.25,1.8-1.49,2.7-3.43,2.7-5.83v-21.13c0-2.39-.9-4.28-2.7-5.63"/><path fill="currentColor" stroke="currentColor" stroke-miterlimit="10" d="M226.15,181.73v-35.29c-4.12.02-8.43.54-12.98,1.56-4.6,1.04-9,2.82-13.17,5.35-4.17,2.54-7.96,5.95-11.37,10.26-3.43,4.33-6.04,9.9-7.82,16.76l-82.6,290.67c-.31.61-.45,1.64-.45,3.13,0,4.76,2.53,7.13,7.6,7.13h26.33c1.8,0,3.43-.66,4.92-2.01,1.49-1.33,2.53-2.89,3.13-4.69l28.58-102.68,8.48-35.28,40.62-146.92c1.47-5.26,4.4-7.91,8.74-8"/><path fill="currentColor" stroke="currentColor" stroke-miterlimit="10" d="M212.81,297.48c-1.8,1.49-2.7,3.41-2.7,5.76v23.26c0,2.37.9,4.15,2.7,5.33,1.8,1.18,3.89,1.77,6.3,1.77h98.85v288.61c0,2.41.74,4.52,2.25,6.3,1.49,1.8,3.44,2.72,5.83,2.72h24.75c2.39,0,4.33-.92,5.83-2.72,1.51-1.78,2.25-3.89,2.25-6.3v-292.33h.14v-34.62h-139.91c-2.41,0-4.5.74-6.3,2.22"/><path fill="currentColor" stroke="currentColor" stroke-miterlimit="10" d="M505.45,447.83h-17.48c-11.91,0-21.43-.81-28.58-2.48-7.15-1.64-12.65-4.33-16.51-8.05-3.88-3.74-6.47-8.52-7.82-14.35-1.33-5.82-2.01-13.07-2.01-21.74v-171.72c0-8.34.68-15.47,2.01-21.43,1.35-5.97,3.95-10.8,7.82-14.52,3.86-3.72,9.36-6.4,16.51-8.03,7.15-1.63,16.67-2.46,28.58-2.46h86.18c3.27,0,4.92-1.8,4.92-5.37v-22.33c0-1.47-.38-2.82-1.13-4.02-.74-1.18-1.85-1.92-3.34-2.23-4.78-.29-10.73-.66-17.86-1.11-7.15-.45-14.75-.74-22.78-.9-8.03-.14-16.15-.29-24.34-.45-8.19-.14-15.56-.23-22.1-.23-31.55,0-55.29,6.4-71.21,19.21-15.92,12.79-23.89,34.08-23.89,63.85v171.9c0,29.77,7.96,51.06,23.89,63.85,14.68,11.8,36.11,18.09,64.08,19.01l25.06-36.42Z"/><path fill="currentColor" d="M410,30c209.87,0,380,170.13,380,380s-170.13,380-380,380S30,619.87,30,410,200.13,30,410,30M410,0c-55.34,0-109.03,10.84-159.6,32.23-48.83,20.65-92.67,50.21-130.31,87.85S52.88,201.57,32.23,250.4C10.84,300.97,0,354.66,0,410s10.84,109.03,32.23,159.6c20.65,48.83,50.21,92.67,87.85,130.31,37.64,37.64,81.49,67.2,130.31,87.85,50.57,21.39,104.26,32.23,159.6,32.23s109.03-10.84,159.6-32.23c48.83-20.65,92.67-50.21,130.31-87.85,37.64-37.64,67.2-81.49,87.85-130.31,21.39-50.57,32.23-104.26,32.23-159.6s-10.84-109.03-32.23-159.6c-20.65-48.83-50.21-92.67-87.85-130.31s-81.49-67.2-130.31-87.85C519.03,10.84,465.34,0,410,0h0Z"/></g></svg>