<?xml version="1.0" encoding="UTF-8"?><svg id="Layer_1" xmlns="http://www.w3.org/2000/svg" xmlns:xlink="http://www.w3.org/1999/xlink" viewBox="0 0 3220.01 1000"><defs><style>.cls-1{fill:#005287;}.cls-2{fill:none;}.cls-3{clip-path:url(#clippath);}</style><clipPath id="clippath"><rect class="cls-2" width="3220.01" height="1000"/></clipPath></defs><g class="cls-3"><polygon class="cls-1" points="2147.41 408.81 2180.67 340.61 2191.02 340.61 2152.5 418.82 2152.5 453.6 2142.49 453.6 2142.49 418.82 2103.98 340.61 2114.33 340.61 2147.41 408.81"/><path class="cls-1" d="M2260.24,423.91h-52.59l-10.52,29.69h-9.84l39.36-112.99h14.76l39.36,112.99h-9.84l-10.69-29.69ZM2210.7,415.26h46.49l-23.24-68.88-23.24,68.88Z"/><polygon class="cls-1" points="2309.6 444.61 2372.54 444.61 2372.54 453.6 2298.57 453.6 2298.57 444.61 2360.16 349.6 2300.27 349.6 2300.27 340.61 2371.36 340.61 2371.36 349.6 2309.6 444.61"/><rect class="cls-1" x="2400.53" y="340.61" width="10.01" height="112.99"/><polygon class="cls-1" points="2451.94 444.61 2502.83 444.61 2502.83 453.6 2441.93 453.6 2441.93 340.61 2451.94 340.61 2451.94 444.61"/><rect class="cls-1" x="2526.58" y="340.61" width="10.01" height="112.99"/><polygon class="cls-1" points="2660.78 350.62 2627.86 439.01 2612.43 439.01 2579.51 350.62 2577.14 453.6 2567.13 453.6 2570.52 340.61 2585.11 340.61 2620.23 432.9 2655.18 340.61 2669.77 340.61 2673.16 453.6 2663.15 453.6 2660.78 350.62"/><polygon class="cls-1" points="2140.46 534.68 2105.68 534.68 2105.68 525.69 2185.25 525.69 2185.25 534.68 2150.47 534.68 2150.47 638.68 2140.46 638.68 2140.46 534.68"/><polygon class="cls-1" points="2204.76 525.69 2268.38 525.69 2268.38 534.68 2214.76 534.68 2214.76 576.58 2264.64 576.58 2264.64 585.58 2214.76 585.58 2214.76 629.69 2268.55 629.69 2268.55 638.68 2204.76 638.68 2204.76 525.69"/><path class="cls-1" d="M2305.7,638.68h-10.01v-112.99h10.01v112.99ZM2321.65,581.16l48.52,57.51h-12.56l-48.01-57.51,44.96-55.48h12.39l-45.3,55.48Z"/><polygon class="cls-1" points="2401.72 535.53 2401.72 638.68 2392.22 638.68 2392.22 525.69 2406.81 525.69 2460.42 629.01 2460.42 525.69 2469.92 525.69 2469.92 638.68 2455.33 638.68 2401.72 535.53"/><path class="cls-1" d="M2537.44,640.37c-29.01,0-39.53-14.25-39.53-33.59v-49.2c0-19.34,10.52-33.59,39.53-33.59s39.53,14.25,39.53,33.59v49.2c0,19.34-10.52,33.59-39.53,33.59M2566.96,606.44v-48.52c0-16.12-7.8-24.94-29.52-24.94s-29.52,8.82-29.52,24.94v48.52c0,16.12,7.8,24.94,29.52,24.94s29.52-8.82,29.52-24.94"/><polygon class="cls-1" points="2614.97 629.69 2665.87 629.69 2665.87 638.68 2604.96 638.68 2604.96 525.69 2614.97 525.69 2614.97 629.69"/><path class="cls-1" d="M2719.82,640.37c-29.01,0-39.53-14.25-39.53-33.59v-49.2c0-19.34,10.52-33.59,39.53-33.59s39.53,14.25,39.53,33.59v49.2c0,19.34-10.52,33.59-39.53,33.59M2749.34,606.44v-48.52c0-16.12-7.8-24.94-29.52-24.94s-29.52,8.82-29.52,24.94v48.52c0,16.12,7.8,24.94,29.52,24.94s29.52-8.82,29.52-24.94"/><path class="cls-1" d="M2797.35,525.69v111.97c0,14.08-1.02,14.93-20.36,33.76l-6.62-7.13c16.63-16.29,16.97-16.97,16.97-25.62v-112.99h10.01Z"/><path class="cls-1" d="M2827.88,497.35h9.84v18.15h-9.84v-18.15ZM2837.89,638.68h-10.01v-112.99h10.01v112.99Z"/><polygon class="cls-1" points="2879.29 629.69 2930.18 629.69 2930.18 638.68 2869.28 638.68 2869.28 525.69 2879.29 525.69 2879.29 629.69"/><polygon class="cls-1" points="2953.08 525.69 3016.71 525.69 3016.71 534.68 2963.09 534.68 2963.09 576.58 3012.97 576.58 3012.97 585.58 2963.09 585.58 2963.09 629.69 3016.87 629.69 3016.87 638.68 2953.08 638.68 2953.08 525.69"/><path class="cls-1" d="M3086.26,595.25h-32.23v43.43h-10.01v-112.99h40.04c22.73,0,31.05,10.35,31.05,26.13v17.3c0,12.39-5.09,21.55-18.32,24.77l30.2,44.79h-11.37l-29.35-43.43ZM3084.23,534.68h-30.2v51.58h30.2c14.25,0,20.87-4.75,20.87-17.14v-17.3c0-12.39-6.62-17.14-20.87-17.14"/><path class="cls-1" d="M3149.88,497.35h9.84v18.15h-9.84v-18.15ZM3159.89,638.68h-10.01v-112.99h10.01v112.99Z"/><path class="cls-1" d="M520.61,100.44c-220.68,0-399.55,178.88-399.55,399.55s178.88,399.55,399.55,399.55,399.55-178.88,399.55-399.55S741.28,100.44,520.61,100.44M324.49,474.58l-24.6,88.4c-.52,1.55-1.42,2.89-2.7,4.04-1.28,1.16-2.68,1.73-4.23,1.73h-22.67c-4.36,0-6.54-2.04-6.54-6.14,0-1.28.12-2.18.39-2.7l71.11-250.24c1.54-5.9,3.79-10.7,6.74-14.42,2.93-3.71,6.2-6.65,9.79-8.84,3.59-2.17,7.38-3.71,11.34-4.6,3.92-.88,7.63-1.33,11.18-1.34v30.38c-3.74.07-6.26,2.35-7.53,6.88l-34.97,126.48-7.3,30.37ZM488.67,438.39h-.12v251.67c0,2.07-.64,3.89-1.94,5.42-1.3,1.55-2.96,2.34-5.02,2.34h-21.31c-2.06,0-3.74-.79-5.02-2.34-1.3-1.54-1.94-3.35-1.94-5.42v-248.47h-85.1c-2.07,0-3.87-.51-5.43-1.52-1.55-1.01-2.32-2.55-2.32-4.59v-20.03c0-2.03.78-3.68,2.32-4.96,1.55-1.27,3.35-1.91,5.43-1.91h120.45v29.8ZM517.43,499.95v-147.99c0-25.63,6.85-43.96,20.56-54.97,13.71-11.03,34.14-16.54,61.3-16.54,5.63,0,11.98.08,19.03.19,7.05.13,14.04.27,20.95.39,6.92.13,13.46.39,19.61.78,6.14.39,11.27.7,15.38.95,1.28.27,2.23.91,2.88,1.92.64,1.03.97,2.19.97,3.46v19.22c0,3.07-1.42,4.62-4.23,4.62h-74.19c-10.25,0-18.45.71-24.6,2.11-6.15,1.4-10.89,3.71-14.22,6.91-3.34,3.2-5.57,7.36-6.73,12.5-1.15,5.13-1.73,11.27-1.73,18.45v147.84c0,7.47.58,13.71,1.73,18.72,1.16,5.02,3.4,9.13,6.73,12.35,3.32,3.2,8.06,5.51,14.22,6.93,6.15,1.43,14.35,2.13,24.6,2.13h15.05l-21.58,31.35c-24.08-.79-42.53-6.2-55.17-16.36-13.71-11.01-20.56-29.34-20.56-54.97M777.46,690.55c0,2.07-.77,3.74-2.32,5.02-1.55,1.3-3.37,1.94-5.42,1.94h-158.66c-12.4,0-20.85-1.79-25.36-5.39-4.51-3.62-6.78-10.58-6.78-20.88,0-3.35.45-7.21,1.36-11.61.91-4.38,2.38-7.99,4.46-10.82l138.6-201.39c.78-1.03,1.16-2.07,1.16-3.1,0-1.8-1.3-2.71-3.87-2.71h-128.53c-2.07,0-3.87-.58-5.42-1.76-1.55-1.18-2.33-2.8-2.33-4.89v-18.43c0-2.09.78-3.73,2.33-4.9,1.55-1.16,3.35-1.76,5.42-1.76h137.82c10.83,0,19.03,1.61,24.59,4.84,5.54,3.23,8.32,10.13,8.32,20.71,0,3.61-.52,7.61-1.55,12-1.03,4.4-2.58,8-4.63,10.85l-138.21,201.71c-.78,1.28-1.18,2.44-1.18,3.47,0,1.55,1.3,2.33,3.88,2.33h148.6c2.06,0,3.88.58,5.42,1.74,1.55,1.16,2.32,2.79,2.32,4.84v18.19Z"/><path class="cls-1" d="M1225.88,574.07h-108.42l-16.44,54.03c-1.18,3.89-4.77,6.55-8.84,6.55h-38.49c-6.24,0-10.69-6.07-8.81-12.02l83.3-264.17c3.03-9.62,11.95-16.16,22.03-16.16h43.38c10.08,0,19,6.54,22.03,16.15l83.3,264.17c1.88,5.95-2.57,12.02-8.81,12.02h-38.54c-4.05,0-7.62-2.63-8.82-6.49l-16.85-54.08ZM1131.06,526.23h80.77l-36.65-126.87c-.96-3.33-5.67-3.34-6.65-.02l-37.46,126.89Z"/><path class="cls-1" d="M1379.07,391.03h-72.41c-5.1,0-9.24-4.14-9.24-9.24v-30.24c0-5.1,4.14-9.24,9.24-9.24h200.12c5.1,0,9.24,4.14,9.24,9.24v30.24c0,5.1-4.14,9.24-9.24,9.24h-72.41v234.38c0,5.1-4.14,9.24-9.24,9.24h-36.83c-5.1,0-9.24-4.14-9.24-9.24v-234.38Z"/><path class="cls-1" d="M1606.6,342.3h123.17c5.1,0,9.24,4.14,9.24,9.24v30.24c0,5.1-4.14,9.24-9.24,9.24h-114.55v70.67h104.89c5.1,0,9.24,4.14,9.24,9.24v30.24c0,5.1-4.14,9.24-9.24,9.24h-104.89v75.5h114.55c5.1,0,9.24,4.14,9.24,9.24v30.24c0,5.1-4.14,9.24-9.24,9.24h-123.17c-25.79,0-46.69-20.9-46.69-46.69v-198.97c0-25.79,20.9-46.69,46.69-46.69"/><path class="cls-1" d="M1853.58,587.68h126.4c5.1,0,9.24,4.14,9.24,9.24v28.49c0,5.1-4.14,9.24-9.24,9.24h-152.81c-19.6,0-35.48-15.89-35.48-35.48v-.13c0-7.11,2.14-14.07,6.14-19.95l129.06-189.82h-120.69c-5.1,0-9.24-4.14-9.24-9.24v-28.49c0-5.1,4.14-9.24,9.24-9.24h145.91c19.77,0,35.79,16.03,35.79,35.79v.2c0,7.15-2.14,14.14-6.15,20.07l-128.17,189.32Z"/></g></svg>