<?xml version="1.0" encoding="UTF-8"?><svg id="katman_2" xmlns="http://www.w3.org/2000/svg" xmlns:xlink="http://www.w3.org/1999/xlink" viewBox="0 0 32.24 32.24"><defs><style>.cls-1{fill:none;}.cls-2{fill:url(#Adsız_degrade_137);}.cls-3{fill:url(#Adsız_degrade_136);}.cls-4{fill:url(#Adsız_degrade_135);}.cls-5{fill:url(#Adsız_degrade_134);}.cls-6{fill:url(#Adsız_degrade_135-3);}.cls-7{fill:url(#Adsız_degrade_135-2);}</style><linearGradient id="Adsız_degrade_137" x1="-2891.13" y1="2534.75" x2="-2891.56" y2="2535.43" gradientTransform="translate(62769.54 -109224.14) rotate(-135) scale(11.37 -47.97)" gradientUnits="userSpaceOnUse"><stop offset="0" stop-color="#21ccfe"/><stop offset=".2" stop-color="#21ccfe"/><stop offset="1" stop-color="#205cff"/></linearGradient><linearGradient id="Adsız_degrade_135" x1="-2867.94" y1="2764.81" x2="-2867.94" y2="2764.22" gradientTransform="translate(-33030.43 78310.63) rotate(72) scale(22.4 -20.12)" gradientUnits="userSpaceOnUse"><stop offset="0" stop-color="#21ccfe"/><stop offset="1" stop-color="#205cff"/></linearGradient><linearGradient id="Adsız_degrade_136" x1="-2928.54" y1="2539.32" x2="-2928.6" y2="2539.09" gradientTransform="translate(-83136.77 -71362.9) rotate(-180) scale(28.4 -28.11)" gradientUnits="userSpaceOnUse"><stop offset="0" stop-color="#0037cc"/><stop offset="1" stop-color="#545454" stop-opacity="0"/></linearGradient><linearGradient id="Adsız_degrade_135-2" x1="-2540.82" y1="2591" x2="-2540.82" y2="2590.42" gradientTransform="translate(119541.39 78691.86) rotate(-45) scale(11.37 -54.1)" xlink:href="#Adsız_degrade_135"/><linearGradient id="Adsız_degrade_135-3" x1="-2787.49" y1="2407.67" x2="-2787.49" y2="2407.08" gradientTransform="translate(20178.19 -66953.19) rotate(-108) scale(20.62 -16.57)" xlink:href="#Adsız_degrade_135"/><linearGradient id="Adsız_degrade_134" x1="-2540.82" y1="2585.38" x2="-2540.82" y2="2584.79" gradientTransform="translate(89059.11 48209.58) rotate(-45) scale(11.37 -37.54)" gradientUnits="userSpaceOnUse"><stop offset="0" stop-color="#205cff" stop-opacity="0"/><stop offset="1" stop-color="#205cff" stop-opacity=".55"/></linearGradient></defs><g id="Layer_1"><rect class="cls-1" width="32.24" height="32.24"/><g id="Group_53270"><path id="Rectangle_5276" class="cls-2" d="M4.96,25.64h0c-1.3-1.3-1.3-3.4,0-4.7l15.14-15.14c1.3-1.3,3.4-1.3,4.7,0h0c1.3,1.3,1.3,3.4,0,4.7l-15.14,15.14c-1.3,1.3-3.4,1.3-4.7,0Z"/><path id="Path_41094" class="cls-4" d="M27.16,3.49c.71,2.19.12,4.6-1.52,6.21l-6.33,6.25h0c-1.86-1.86-2-7.02-1.82-7.55L26.03,0l1.13,3.49Z"/><path id="Path_41095" class="cls-3" d="M30.05,1.01c.51.52.76,1.23.7,1.96,0,.79-.31,1.55-.87,2.1l-4.49,4.81-3.23,3.24-3.32,3.32-4.68-4.68L25.67.87C26.23.31,26.98,0,27.77,0c.86.05,1.67.41,2.28,1.01Z"/><path id="Rectangle_5277" class="cls-7" d="M5.38,7.73h0c1.3-1.3,3.4-1.3,4.7,0l17.67,17.67c1.3,1.3,1.3,3.4,0,4.7h0c-1.3,1.3-3.4,1.3-4.7,0L5.38,12.43c-1.3-1.3-1.3-3.4,0-4.7Z"/><path id="Path_41100" class="cls-6" d="M1.79,28.75c-.71-2.19-.12-4.6,1.52-6.21l4.67-4.61h0c1.86,1.86,1.99,7.02,1.81,7.55l-6.86,6.77-1.13-3.49Z"/><path id="Rectangle_5278" class="cls-5" d="M12.23,14.57h0c1.3-1.3,3.4-1.3,4.7,0l10.82,10.82c1.3,1.3,1.3,3.4,0,4.7h0c-1.3,1.3-3.4,1.3-4.7,0l-10.82-10.82c-1.3-1.3-1.3-3.4,0-4.7Z"/></g></g></svg>