<?xml version="1.0" encoding="UTF-8"?><svg id="katman_2" xmlns="http://www.w3.org/2000/svg" xmlns:xlink="http://www.w3.org/1999/xlink" viewBox="0 0 32.24 32.25"><defs><style>.cls-1{fill:url(#Adsız_degrade_43);}.cls-2{fill:url(#Adsız_degrade_45);}</style><linearGradient id="Adsız_degrade_43" x1="29.71" y1="6.4" x2="3.49" y2="25.17" gradientUnits="userSpaceOnUse"><stop offset="0" stop-color="#f800ff"/><stop offset="1" stop-color="#33b1ff"/></linearGradient><linearGradient id="Adsız_degrade_45" x1="28.26" y1="3.32" x2="11.58" y2="20.92" gradientUnits="userSpaceOnUse"><stop offset=".48" stop-color="#fff" stop-opacity="0"/><stop offset="1" stop-color="#000" stop-opacity=".4"/></linearGradient></defs><g id="Layer_1"><path class="cls-1" d="M30.73,12.49L19.77,1.53c-2.02-2.02-5.29-2.02-7.3,0l-1.88,1.88h0s-4.81,4.81-4.81,4.81h0s0,0,0,0l.26.26-.26-.26L1.51,12.48c-2.02,2.02-2.02,5.29,0,7.3,0,0,0,0,0,0l10.96,10.96c.5.5,1.08.88,1.7,1.13,1.86.75,4.07.37,5.58-1.14h0s4.26-4.26,4.26-4.26h0s2.45-2.43,2.45-2.43h0s4.26-4.26,4.26-4.26c2.02-2.02,2.02-5.29,0-7.3ZM16.05,18.85c-.34.12-.68,0-.87-.31-.25-.41-.45-1.06-.66-1.51-.45-.98-1.11-1.86-2.01-2.48-.71-.49-1.54-.78-2.32-1.13-.31-.14-.7-.26-.81-.61-.11-.36,0-.69.31-.89,1.27-.59,2.54-.98,3.55-2,.99-1,1.39-2.26,1.92-3.54.37-.53,1.02-.47,1.3.12.5,1.05.71,2.01,1.46,2.96.27.34.65.72,1,.98.8.61,1.77.92,2.68,1.35.42.2.72.41.61.94-.07.35-.33.46-.62.6-1.27.6-2.4.9-3.4,1.97-.73.78-1.07,1.59-1.49,2.55-.15.34-.25.86-.65,1.01ZM23.41,19.47c-1.04.48-1.49.88-1.99,1.92-.09.19-.12.44-.35.52h-.27s-.06-.04-.09-.06c-.15-.12-.31-.63-.42-.82-.34-.63-.87-1.11-1.51-1.43-.18-.09-.54-.2-.68-.31-.14-.11-.17-.35-.09-.51.09-.18.54-.31.73-.4.7-.34,1.24-.85,1.58-1.56.1-.2.25-.77.48-.83.47-.11.52.33.66.65.38.84.86,1.35,1.7,1.75.27.13.75.22.75.59,0,.33-.28.38-.51.49Z"/><path class="cls-2" d="M21.02,29.5h0s9.66-9.73,9.66-9.73c2.02-2.02,2.02-5.29,0-7.3L19.72,1.51c-2.02-2.02-5.29-2.02-7.3,0l-7.28,7.35h0s-3.03,3.03-3.03,3.03h0s0,0,0,0l2.09,2.09c.46.47,1.09.74,1.75.76,1.76.05,3.43.77,4.67,2.01l4.87,4.87c1.25,1.24,1.97,2.91,2.01,4.67.02.66.29,1.28.75,1.75l.28.28,1.83,1.83"/></g></svg>