<svg width="56" height="56" viewBox="0 0 56 56" fill="none" xmlns="http://www.w3.org/2000/svg">
<path d="M38.9975 44.5403C39.3177 44.8788 39.5774 45.2716 39.7641 45.7008C39.9772 46.1911 40.0909 46.72 40.0985 47.2551C40.106 47.7904 40.0073 48.323 39.808 48.8193C39.6087 49.3153 39.3128 49.767 38.938 50.1466C38.5631 50.5262 38.1156 50.8268 37.6237 51.0304C37.132 51.2338 36.6043 51.3374 36.0726 51.3331C35.5408 51.3287 35.0141 51.2167 34.5256 51.0051C34.0373 50.7935 33.5954 50.4857 33.2267 50.1002L28.9241 45.7699L34.5711 40.0847L38.9975 44.5403ZM35.7259 36.1996L21.953 50.0782C21.2046 50.8296 20.1903 51.2517 19.1332 51.2517C18.076 51.2516 17.0617 50.8298 16.3133 50.0782H16.3052C15.5585 49.325 15.1392 48.3037 15.139 47.2397C15.1391 46.1759 15.5588 45.1551 16.3052 44.4019L21.2597 39.4166L21.2621 39.419L29.0112 31.6203L29.0047 31.6138L30.0862 30.5233L35.7259 36.1996ZM37.6848 24.1814L42.037 28.5629L48.3058 34.8715C49.0558 35.6232 49.4784 36.6447 49.481 37.71C49.4832 38.7755 49.0647 39.7991 48.318 40.5543C47.5711 41.3093 46.5559 41.735 45.4974 41.7375C44.4388 41.7398 43.4213 41.319 42.671 40.5673L42.6588 40.5543L37.0289 34.8886L37.0256 34.891L31.3851 29.2139L31.3883 29.2115L28.8427 26.6488L34.4898 20.966L37.6848 24.1814ZM16.7731 36.2484L12.5023 40.547C11.9441 41.1049 11.2339 41.485 10.462 41.6383C9.69012 41.7914 8.88995 41.711 8.16303 41.408C7.43613 41.1049 6.81419 40.5918 6.37591 39.9342C5.93783 39.2766 5.70242 38.5026 5.69963 37.7109C5.69835 37.1838 5.80045 36.6605 6.00074 36.1736C6.20113 35.6867 6.49639 35.2441 6.86745 34.8723L11.1359 30.5738L16.7731 36.2484ZM7.12624 15.9725C7.85626 15.6674 8.66058 15.587 9.43583 15.7422C10.2111 15.8976 10.9234 16.2818 11.4817 16.8449L17.6105 23.0136L17.6032 23.0209L25.7779 31.2493L25.7853 31.2419L26.35 31.81L20.7047 37.4919L19.0485 35.8245L19.0526 35.822L10.8779 27.5945L10.8738 27.5969L5.83717 22.5269C5.46607 22.156 5.17136 21.714 4.97046 21.2281C4.76968 20.7422 4.66584 20.2203 4.66609 19.6941C4.66377 18.8986 4.89657 18.1193 5.33423 17.4569C5.77208 16.7946 6.39638 16.2778 7.12624 15.9725ZM36.2582 6.20934C37.0351 6.04917 37.8424 6.12762 38.5751 6.43314C39.1619 6.67703 39.6823 7.05904 40.0928 7.54642C40.5032 8.03378 40.7922 8.61346 40.9351 9.23588L41.0352 10.1595C41.036 11.2243 40.6173 12.2462 39.8715 13.0013L33.9209 18.9901L25.1025 27.8663L19.4579 22.1851L21.6186 20.0098L21.6202 20.0114L29.3693 12.212L29.3677 12.2103L34.2155 7.33158C34.7697 6.76086 35.4815 6.3696 36.2582 6.20934ZM43.9064 14.2033C44.2754 13.5861 45.1979 13.6304 45.4884 14.3352L45.49 14.3368L45.9091 15.3532C46.6179 17.0709 47.9415 18.4446 49.6063 19.1887L50.7692 19.7095L50.9303 19.799C51.4671 20.1552 51.4666 20.9948 50.9303 21.351L50.77 21.4397L49.5347 21.9906L49.533 21.9922C47.9489 22.7035 46.6708 23.9903 45.9409 25.6047L45.9344 25.612L45.8945 25.7032L45.4827 26.6407L45.4567 26.6968C45.1159 27.3725 44.1609 27.3575 43.8502 26.6448L43.4425 25.7048C42.7207 24.0446 41.422 22.7165 39.7982 21.9906L38.5385 21.4299C37.8188 21.1066 37.8207 20.0422 38.5417 19.7201L39.738 19.1838L39.7486 19.1773L40.3101 18.8949L40.3329 18.8819C41.7119 18.097 42.8034 16.8556 43.4238 15.3524L43.8413 14.3352L43.9064 14.2033ZM16.9416 5.74222C17.7921 4.31889 19.8318 4.3134 20.6916 5.69421L20.7535 5.75524L20.8739 6.04577L21.1881 6.8083C21.5468 7.67777 22.1939 8.37578 22.9996 8.78422L23.1632 8.86153L24.095 9.27982L24.1519 9.31075L24.2724 9.37829L24.3269 9.40759L24.3782 9.44177C25.7068 10.3228 25.7039 12.3178 24.379 13.1975L24.3253 13.2325L24.2691 13.2634L24.1495 13.3293L24.0934 13.3602L24.0356 13.3863L23.1086 13.8005C22.272 14.1767 21.5858 14.8617 21.1913 15.7341L21.1116 15.9107L20.8544 16.4958L20.8511 16.5023L20.8487 16.508L20.83 16.5512L20.8161 16.5821L20.8007 16.6122C19.9602 18.2811 17.5675 18.2383 16.8081 16.4942L16.5021 15.7894L16.4256 15.6226C16.0245 14.8043 15.3616 14.1604 14.5579 13.8005L13.6123 13.3798L13.6082 13.3781C11.8456 12.5865 11.8568 10.0478 13.6115 9.26192L14.4627 8.87862L14.833 8.69226C15.5595 8.27572 16.1424 7.61597 16.4761 6.80749L16.8098 5.99613L16.835 5.94486L16.8838 5.84557L16.9107 5.79268L16.9416 5.74222ZM18.8313 8.96732C18.2482 9.92889 17.4446 10.736 16.4842 11.3143C17.4401 11.8782 18.2439 12.6684 18.8337 13.6109C19.4236 12.6674 20.2287 11.8789 21.1824 11.3151C20.2213 10.7369 19.4149 9.93015 18.8313 8.96732Z" fill="url(#paint0_radial_3718_2341)"/>
<defs>
<radialGradient id="paint0_radial_3718_2341" cx="0" cy="0" r="1" gradientTransform="matrix(21.6669 34.5834 -30.4539 19.0794 16.7495 5.91657)" gradientUnits="userSpaceOnUse">
<stop stop-color="#D912F0"/>
<stop offset="1" stop-color="#219DFF"/>
</radialGradient>
</defs>
</svg>
