<svg width="24" height="24" viewBox="0 0 24 24" fill="none" xmlns="http://www.w3.org/2000/svg">
<g clip-path="url(#clip0_3993_1302)">
<path d="M18.1863 1L23.6786 10.768C24.1071 11.5307 24.1071 12.4693 23.6786 13.2296L18.1863 22.9976H5.81371L0.321397 13.232C-0.107132 12.4693 -0.107132 11.5307 0.321397 10.7704L5.81371 1H18.1839H18.1863Z" fill="#0062FF"/>
<path d="M18.1863 1L23.6786 10.768C24.1071 11.5307 24.1071 12.4693 23.6786 13.2296L18.1863 22.9976H5.81371L0.321397 13.232C-0.107132 12.4693 -0.107132 11.5307 0.321397 10.7704L5.81371 1H18.1839H18.1863Z" fill="url(#paint0_linear_3993_1302)"/>
<path d="M5.81371 23L11.9988 12L5.81371 1L0.321397 10.768C-0.107132 11.5307 -0.107132 12.4693 0.321397 13.2296L5.81371 22.9976V23Z" fill="#0062FF"/>
<path d="M5.81371 23L11.9988 12L5.81371 1L0.321397 10.768C-0.107132 11.5307 -0.107132 12.4693 0.321397 13.2296L5.81371 22.9976V23Z" fill="url(#paint1_linear_3993_1302)"/>
<path d="M10.6299 21.7484L15.8913 12.3911C16.0341 12.1369 16.0341 11.824 15.8913 11.5698L10.6299 2.21244C10.4085 1.81889 9.92046 1.68444 9.53716 1.91178C9.41575 1.98267 9.31576 2.08778 9.24433 2.21244L4.44243 10.7509C4.0139 11.5136 4.0139 12.4522 4.44243 13.2124L9.24433 21.7509C9.46574 22.1444 9.95379 22.2789 10.3371 22.0516C10.4585 21.9807 10.5585 21.8756 10.6299 21.7509" fill="#EDF4FF"/>
<path d="M10.6299 21.7484L15.8913 12.3911C16.0341 12.1369 16.0341 11.824 15.8913 11.5698L10.6299 2.21244C10.4085 1.81889 9.92046 1.68444 9.53716 1.91178C9.41575 1.98267 9.31576 2.08778 9.24433 2.21244L4.44243 10.7509C4.0139 11.5136 4.0139 12.4522 4.44243 13.2124L9.24433 21.7509C9.46574 22.1444 9.95379 22.2789 10.3371 22.0516C10.4585 21.9807 10.5585 21.8756 10.6299 21.7509" fill="url(#paint2_linear_3993_1302)"/>
<path d="M14.7533 21.7484L20.0147 12.3911C20.1575 12.1369 20.1575 11.824 20.0147 11.5698L14.7533 2.21244C14.5319 1.81889 14.0439 1.68444 13.6606 1.91178C13.5392 1.98267 13.4392 2.08778 13.3677 2.21244L8.56584 10.7509C8.13731 11.5136 8.13731 12.4522 8.56584 13.2124L13.3677 21.7509C13.5892 22.1444 14.0772 22.2789 14.4605 22.0516C14.5819 21.9807 14.6819 21.8756 14.7533 21.7509" fill="#408BFC"/>
<path d="M14.7533 21.7484L20.0147 12.3911C20.1575 12.1369 20.1575 11.824 20.0147 11.5698L14.7533 2.21244C14.5319 1.81889 14.0439 1.68444 13.6606 1.91178C13.5392 1.98267 13.4392 2.08778 13.3677 2.21244L8.56584 10.7509C8.13731 11.5136 8.13731 12.4522 8.56584 13.2124L13.3677 21.7509C13.5892 22.1444 14.0772 22.2789 14.4605 22.0516C14.5819 21.9807 14.6819 21.8756 14.7533 21.7509" fill="url(#paint3_linear_3993_1302)"/>
<path d="M18.1863 23L23.6786 13.232C24.1071 12.4693 24.1071 11.5307 23.6786 10.7704L18.1863 1L18.1482 1.06844L12.694 10.768C12.2654 11.5307 12.2654 12.4693 12.694 13.2296L18.1863 22.9951V23Z" fill="#408BFC"/>
</g>
<defs>
<linearGradient id="paint0_linear_3993_1302" x1="-1.85534" y1="12.2471" x2="32.7794" y2="12.2471" gradientUnits="userSpaceOnUse">
<stop/>
<stop offset="1" stop-color="white" stop-opacity="0"/>
</linearGradient>
<linearGradient id="paint1_linear_3993_1302" x1="11.4276" y1="12.2643" x2="-0.501759" y2="12.2643" gradientUnits="userSpaceOnUse">
<stop/>
<stop offset="1" stop-color="white" stop-opacity="0"/>
</linearGradient>
<linearGradient id="paint2_linear_3993_1302" x1="15.6319" y1="11.7761" x2="3.8258" y2="11.7761" gradientUnits="userSpaceOnUse">
<stop/>
<stop offset="1" stop-color="white" stop-opacity="0"/>
</linearGradient>
<linearGradient id="paint3_linear_3993_1302" x1="19.7166" y1="11.7761" x2="7.91046" y2="11.7761" gradientUnits="userSpaceOnUse">
<stop/>
<stop offset="1" stop-color="white" stop-opacity="0"/>
</linearGradient>
<clipPath id="clip0_3993_1302">
<rect width="24" height="24" fill="white"/>
</clipPath>
</defs>
</svg>
