<?xml version="1.0" encoding="UTF-8"?><svg xmlns="http://www.w3.org/2000/svg" xmlns:xlink="http://www.w3.org/1999/xlink" viewBox="0 0 32.24 32.24"><defs><style>.cls-1{fill:none;}.cls-2{fill:url(#Adsız_degrade_127);}.cls-3{fill:url(#Adsız_degrade_28);}.cls-4,.cls-5{isolation:isolate;}.cls-5{fill:url(#Adsız_degrade_12);mix-blend-mode:multiply;}</style><linearGradient id="Adsız_degrade_28" x1="-2338.71" y1="-749.61" x2="-2339.19" y2="-749.13" gradientTransform="translate(-53908.53 104826.81) rotate(135) scale(47.99 -48.02)" gradientUnits="userSpaceOnUse"><stop offset="0" stop-color="#33b1ff"/><stop offset="1" stop-color="#0062ff"/></linearGradient><linearGradient id="Adsız_degrade_12" x1="-2311.34" y1="-710.83" x2="-2312.21" y2="-710.84" gradientTransform="translate(3148.94 35987.12) rotate(120) scale(12.8 -29.11)" gradientUnits="userSpaceOnUse"><stop offset="0" stop-color="#fff" stop-opacity=".67"/><stop offset="1" stop-color="#000"/></linearGradient><linearGradient id="Adsız_degrade_127" x1="21.52" y1="24.46" x2="8.83" y2="10.91" gradientUnits="userSpaceOnUse"><stop offset="0" stop-color="#3fa9f5" stop-opacity="0"/><stop offset="1" stop-color="#2e3192" stop-opacity=".7"/></linearGradient></defs><g class="cls-4"><g id="katman_2"><g id="Layer_1"><rect class="cls-1" width="32.24" height="32.24"/><path id="Path_41858" class="cls-3" d="M0,15.66L9.44,6.22c5.22-5.21,13.68-5.21,18.89.01,3.79,3.79,4.94,9.49,2.93,14.45-2.77,6.83-10.56,10.13-17.39,7.36-1.66-.67-3.17-1.67-4.43-2.94L0,15.66ZM22.68,19.45c2.1-2.1,2.1-5.49,0-7.59s-5.49-2.1-7.59,0l-3.8,3.8,3.8,3.8c2.1,2.09,5.49,2.09,7.59,0Z"/><path id="Path_41188" class="cls-5" d="M18.08,10.35c1.25-.17,2.52.08,3.61.71,2.47,1.53,3.29,4.73,1.86,7.26,8.63,4.22,8.2.3,8.49-.38-.59-2.2-2.45-4.36-5.39-6.05-2.77-1.6-5.74-2.19-8.57-1.54h0Z"/><path class="cls-2" d="M22.68,19.45c-2.1,2.09-5.49,2.09-7.59,0l-3.79-3.79c-3.12,3.11-8.17,3.11-11.3,0l9.44,9.44c1.27,1.27,2.77,2.27,4.43,2.94,6.83,2.77,14.62-.52,17.39-7.36l-8.58-1.23Z"/></g></g></g></svg>