<?xml version="1.0" encoding="UTF-8"?><svg id="katman_2" xmlns="http://www.w3.org/2000/svg" xmlns:xlink="http://www.w3.org/1999/xlink" viewBox="0 0 32.24 32.24"><defs><linearGradient id="cs_g1" x1="-2457.94" y1="-821.97" x2="-2457.94" y2="-822.23" gradientTransform="translate(149541.16 -82158.44) scale(60.84 -99.96)" gradientUnits="userSpaceOnUse"><stop offset="0" stop-color="#205cff"/><stop offset="1" stop-color="#21ccfe"/></linearGradient><linearGradient id="cs_g2" x1="-2463.79" y1="-822.51" x2="-2463.53" y2="-822.35" gradientTransform="translate(171541.72 -80402.29) scale(69.62 -97.78)" xlink:href="#cs_g1"/><linearGradient id="cs_g3" x1="-2478.6" y1="-839.01" x2="-2478.35" y2="-839.01" gradientTransform="translate(300871.56 -40980.01) scale(121.39 -48.85)" gradientUnits="userSpaceOnUse"><stop offset="0" stop-color="#21ccfe"/><stop offset="1" stop-color="#205cff"/></linearGradient><linearGradient id="cs_g4" x1="-2478.44" y1="-839.1" x2="-2478.22" y2="-838.92" gradientTransform="translate(300871.56 -40899.37) scale(121.39 -48.75)" gradientUnits="userSpaceOnUse"><stop offset="0" stop-color="#0037cc"/><stop offset="1" stop-color="#205cff" stop-opacity="0"/></linearGradient><linearGradient id="cs_g5" x1="-2463.95" y1="-822.72" x2="-2463.59" y2="-822.35" gradientTransform="translate(171541.72 -80402.29) scale(69.62 -97.78)" gradientUnits="userSpaceOnUse"><stop offset="0" stop-color="#fff" stop-opacity="0"/><stop offset="1" stop-color="#0037cc"/></linearGradient><linearGradient id="cs_g6" x1="-2458" y1="-822.04" x2="-2457.83" y2="-822.2" gradientTransform="translate(149541.16 -82158.44) scale(60.84 -99.96)" gradientUnits="userSpaceOnUse"><stop offset="0" stop-color="#205cff" stop-opacity="0"/><stop offset="1" stop-color="#0037cc"/></linearGradient></defs><g id="Layer_1"><rect fill="none" width="32.24" height="32.24"/><path fill="url(#cs_g1)" d="M16.12,32.24c-.47-.2-.94-.42-1.38-.64-4.62-2.29-8.44-5.91-10.97-10.4-1.22-2.17-2.13-4.5-2.7-6.93-.57-2.44-.79-4.95-.65-7.45l.2-.07c2.17-.73,4.56-.38,6.44.93,1.24.87,2.18,2.1,2.67,3.54.04.12,2.37,7.06,2.38,7.08.58,1.75,1.92,3.15,3.64,3.8h0c-2.62,2.85-2.53,7.26.21,9.99l.16.15h0Z"/><path fill="url(#cs_g2)" d="M16.12,32.24h0l-.16-.15c-2.8-2.79-2.83-7.33-.06-10.15l5.28-5.28c.57-.57,1.03-1.25,1.34-2,.3-.72.46-1.48.47-2.26l.11.03c.53.12,1.07.18,1.62.18.81,0,1.61-.14,2.37-.4,2.34-.81,4.1-2.75,4.67-5.16l.05-.12c.03.48.04.96.04,1.41,0,5.16-1.52,10.2-4.4,14.47-1.39,2.07-3.06,3.92-4.98,5.52-1.92,1.6-4.07,2.92-6.37,3.9h0Z"/><path fill="url(#cs_g3)" d="M24.83,12.64h0c-.58,0-1.17-.07-1.73-.2-.01,0-1.83-.45-3.59-.88h-.06s-.06-.03-.06-.03c-1.75-.43-3.57-.87-3.58-.88-.33-.04-.65-.06-.98-.06-.88,0-1.75.12-2.59.35-.79.2-1.54.55-2.2,1.03l-.17-.09-.12-.35-.05-.14c-.49-1.46-1.43-2.73-2.69-3.62-.6-.43-1.27-.76-1.97-.99-1.47-.48-3.05-.46-4.5.04l-.07.03c.98-1.05,2.06-2.01,3.23-2.85,1.17-.84,2.42-1.56,3.73-2.15,1.33-.6,2.72-1.06,4.15-1.36C16.02-.48,20.66.01,24.82,1.88c2.67,1.2,5.07,2.94,7.05,5.1l-.09.21c-.19.8-.51,1.57-.96,2.26-.43.66-.97,1.24-1.59,1.71-.62.47-1.31.84-2.05,1.09-.75.25-1.54.38-2.34.38Z"/><path fill="url(#cs_g4)" opacity=".25" d="M24.78,12.61c-.59,0-1.18-.07-1.75-.2-.01,0-1.66-.4-3.4-.81h-.03s-.02-.01-.02-.01c-1.74-.42-3.55-.85-3.56-.85-.47-.11-.94-.16-1.42-.16-1.66,0-3.5.56-4.57,1.38l-.2-.1-.12-.35-.04-.11c-.49-1.46-1.43-2.73-2.69-3.62-.6-.43-1.27-.76-1.97-.99-1.47-.48-3.05-.46-4.5.04l-.07.03c.98-1.05,2.06-2.01,3.23-2.85,1.17-.84,2.42-1.56,3.73-2.15,1.33-.6,2.72-1.06,4.15-1.36C16.02-.48,20.66.01,24.82,1.88c2.67,1.2,5.07,2.94,7.05,5.1l-.09.21c-.19.8-.52,1.57-.97,2.26-.43.66-.98,1.23-1.61,1.71-.63.47-1.32.83-2.07,1.08-.76.25-1.55.38-2.35.38h0Z"/><path fill="url(#cs_g5)" d="M16.12,32.24h0l-.16-.15c-2.8-2.79-2.83-7.33-.06-10.15l5.28-5.28c.57-.57,1.03-1.25,1.34-2,.3-.72.46-1.48.47-2.26l.11.03c.53.12,1.07.18,1.62.18.81,0,1.61-.14,2.37-.4,2.34-.81,4.1-2.75,4.67-5.16l.05-.12c.03.48.04.96.04,1.41,0,5.16-1.52,10.2-4.4,14.47-1.39,2.07-3.06,3.92-4.98,5.52-1.92,1.6-4.07,2.92-6.37,3.9h0Z"/><path fill="url(#cs_g6)" d="M16.12,32.24c-.47-.2-.94-.42-1.38-.64-4.62-2.29-8.44-5.91-10.97-10.4-1.22-2.17-2.13-4.5-2.7-6.93-.57-2.44-.79-4.95-.65-7.45l.2-.07c2.17-.73,4.56-.38,6.44.93,1.24.87,2.18,2.1,2.67,3.54.04.12,2.37,7.06,2.38,7.08.58,1.75,1.92,3.15,3.64,3.8h0c-2.62,2.85-2.53,7.26.21,9.99l.16.15h0Z"/></g></svg>
