<svg width="24" height="24" viewBox="0 0 24 24" fill="none" xmlns="http://www.w3.org/2000/svg"><g clip-path="url(#dec_clip)"><path d="M15.9999 17.5999L15.8188 17.4188C15.513 17.1135 15.3356 16.7027 15.3231 16.2707C15.292 15.1153 14.8183 14.016 13.9998 13.2L10.8005 10.0006C9.98438 9.18216 8.88505 8.70847 7.72964 8.67744C7.29767 8.66492 6.88687 8.48756 6.58153 8.18175L5.19985 6.80006L2.39987 9.60006C1.76336 10.2366 1.40578 11.0999 1.40578 12C1.40578 12.9002 1.76336 13.7635 2.39987 14.4L9.59989 21.6001C9.91507 21.9153 10.2892 22.1653 10.7011 22.3359C11.1129 22.5064 11.5542 22.5942 12 22.5942C12.4457 22.5942 12.887 22.5064 13.2988 22.3358C13.7106 22.1652 14.0848 21.9152 14.4 21.6L17.1999 18.8L15.9999 17.5999Z" fill="url(#dec_g0)"/><path d="M9.3285 7.07858C10.4839 7.10962 11.5832 7.58331 12.3993 8.40178L15.5987 11.6011C16.4168 12.4171 16.8903 13.5162 16.9214 14.6713C16.934 15.0918 17.1029 15.4926 17.3951 15.7952L18.7999 17.2L21.5999 14.4C22.2364 13.7635 22.594 12.9002 22.594 12C22.594 11.0999 22.2364 10.2366 21.5999 9.60006L14.3998 2.39998C13.7633 1.76347 12.9 1.40588 11.9999 1.40588C11.0997 1.40588 10.2364 1.76347 9.59992 2.39998L6.79994 5.19998L8.20471 6.60477C8.50738 6.89698 8.90811 7.06587 9.32864 7.07845" fill="url(#dec_g1)"/><path d="M15.9999 17.5999L15.8188 17.4188C15.513 17.1135 15.3356 16.7027 15.3231 16.2707C15.292 15.1153 14.8183 14.016 13.9998 13.2L10.8005 10.0006C9.98438 9.18216 8.88505 8.70847 7.72964 8.67744C7.29767 8.66492 6.88687 8.48756 6.58153 8.18175L5.19985 6.80006L2.39987 9.60006C1.76336 10.2366 1.40578 11.0999 1.40578 12C1.40578 12.9002 1.76336 13.7635 2.39987 14.4L9.59989 21.6001C9.91507 21.9153 10.2892 22.1653 10.7011 22.3359C11.1129 22.5064 11.5542 22.5942 12 22.5942C12.4457 22.5942 12.887 22.5064 13.2988 22.3358C13.7106 22.1652 14.0848 21.9152 14.4 21.6L17.1999 18.8L15.9999 17.5999Z" fill="url(#dec_g2)"/></g><defs><linearGradient id="dec_g0" x1="12.3999" y1="11.6" x2="5.99983" y2="18" gradientUnits="userSpaceOnUse"><stop stop-color="#205CFF"/><stop offset="1" stop-color="#21CCFE"/></linearGradient><linearGradient id="dec_g1" x1="6.49314" y1="5.50678" x2="19.0673" y2="0.235022" gradientUnits="userSpaceOnUse"><stop stop-color="#205CFF"/><stop offset="1" stop-color="#21CCFE"/></linearGradient><linearGradient id="dec_g2" x1="12.5479" y1="11.62" x2="6.22284" y2="17.8289" gradientUnits="userSpaceOnUse"><stop stop-color="#08072E" stop-opacity="0.502"/><stop offset="1" stop-color="#5A5973" stop-opacity="0"/></linearGradient><clipPath id="dec_clip"><rect width="24" height="24" fill="white"/></clipPath></defs></svg>
