<?xml version="1.0" encoding="UTF-8"?><svg id="katman_2" xmlns="http://www.w3.org/2000/svg" xmlns:xlink="http://www.w3.org/1999/xlink" viewBox="0 0 32.24 32.24"><defs><style>.cls-1{fill:none;}.cls-2{fill:url(#Adsız_degrade_11);}.cls-3{fill:url(#Adsız_degrade_13);}.cls-4{fill:url(#Adsız_degrade_15);}.cls-5{fill:url(#Adsız_degrade_13-2);}</style><linearGradient id="Adsız_degrade_13" x1="-2374.28" y1="2665.13" x2="-2374.28" y2="2664.62" gradientTransform="translate(-5565.95 136243.75) rotate(30) scale(26.65 -45.32)" gradientUnits="userSpaceOnUse"><stop offset="0" stop-color="#52c41a"/><stop offset="1" stop-color="#237804"/></linearGradient><linearGradient id="Adsız_degrade_15" x1="-2269.49" y1="2645.76" x2="-2269.49" y2="2645.33" gradientTransform="translate(36537.18 115766.37) scale(16.09 -43.75)" gradientUnits="userSpaceOnUse"><stop offset="0" stop-color="#52c41a" stop-opacity="0"/><stop offset="1" stop-color="#0c2902" stop-opacity=".29"/></linearGradient><linearGradient id="Adsız_degrade_13-2" x1="-2489.62" y1="2621.13" x2="-2489.62" y2="2621.64" gradientTransform="translate(-196033.77 -2775.37) rotate(120) scale(38.4 -65.3)" xlink:href="#Adsız_degrade_13"/><linearGradient id="Adsız_degrade_11" x1="-2365.98" y1="2639.78" x2="-2365.6" y2="2638.95" gradientTransform="translate(110265.13 134523.64) scale(46.6 -50.96)" gradientUnits="userSpaceOnUse"><stop offset="0" stop-color="#000" stop-opacity="0"/><stop offset="1" stop-color="#000" stop-opacity=".3"/></linearGradient></defs><g id="Layer_1"><rect class="cls-1" width="32.24" height="32.24"/><g id="Group_53272"><path id="Path_41084" class="cls-3" d="M29.32,5.11c-2.91.78-5.4,2.68-6.91,5.28l-.04.07c-1.5,2.61-1.9,5.72-1.12,8.63l2.54,9.64c6.11-1.73,9.7-8.04,8.06-14.18l-2.53-9.45Z"/><path id="Path_41925" class="cls-4" d="M23.96,28.67h0l5.2-22.31.42-.11,2.31,8.54c.34,1.44.41,2.93.2,4.4-.2,1.45-.67,2.85-1.37,4.14-1.46,2.61-3.88,4.53-6.76,5.35h0Z"/><path id="Path_41918" class="cls-5" d="M0,3.2c4.19-1.13,8.67-.55,12.43,1.62l.11.06c3.76,2.18,6.49,5.76,7.61,9.96l3.77,13.87c-8.78,2.35-17.92-3.11-20.28-11.88L0,3.2Z"/><path id="Path_41924" class="cls-2" d="M23.73,28.75L.03,3.19c4.19-1.13,8.66-.55,12.43,1.61l.11.06c1.83,1.06,3.43,2.46,4.73,4.13,1.34,1.81,2.32,3.87,2.88,6.06l3.74,13.64h-.06s-.12.05-.12.05h0Z"/></g></g></svg>