<svg width="24" height="24" viewBox="0 0 24 24" fill="none" xmlns="http://www.w3.org/2000/svg"><path d="M9.82755 19.9996H6.56909C5.70729 20.0006 4.85374 19.8362 4.05718 19.5157C3.26062 19.1953 2.53667 18.7251 1.92669 18.1321C1.31671 17.539 0.832644 16.8346 0.502152 16.0593C0.17166 15.2839 0.00121524 14.4527 0.000555151 13.6132V10.3998C-0.000594267 9.56019 0.168096 8.72856 0.496985 7.95245C0.825873 7.17634 1.30851 6.47097 1.91733 5.87664C2.52615 5.28231 3.24921 4.81067 4.04521 4.48867C4.8412 4.16667 5.69452 4.00061 6.55641 4H14.2346C14.8147 4.00174 15.3707 4.22706 15.7809 4.62674C16.1911 5.02642 16.4224 5.568 16.4241 6.13321V7.19991C16.4224 7.76519 16.1911 8.30684 15.7807 8.70653C15.3704 9.10623 14.8144 9.33149 14.2341 9.33312H6.57018C5.98993 9.33475 5.43391 9.56002 5.02358 9.95971C4.61326 10.3594 4.38197 10.901 4.38024 11.4663V12.533C4.38197 13.0983 4.61326 13.64 5.02358 14.0397C5.43391 14.4393 5.98993 14.6646 6.57018 14.6662H9.814C9.24012 14.676 8.69318 14.9051 8.29117 15.3042C7.88917 15.7033 7.66433 16.2403 7.66516 16.7994V17.8662C7.66993 18.4259 7.89842 18.9618 8.30216 19.3602C8.70589 19.7585 9.25307 19.9878 9.82755 19.9996Z" fill="url(#log_g0)"/><path d="M0.0960035 14.6667H9.85455C9.27426 14.6683 8.71821 14.8936 8.30787 15.2933C7.89754 15.6931 7.66628 16.2348 7.6646 16.8001V17.8668C7.66633 18.4321 7.89762 18.9737 8.30795 19.3734C8.71828 19.7731 9.27429 19.9984 9.85455 20H6.56985C5.01783 19.9997 3.5161 19.4638 2.33102 18.4875C1.14594 17.5112 0.354121 16.1576 0.0960035 14.6667Z" fill="url(#log_g1)"/><path d="M17.4304 19.9996H9.766C9.18574 19.9979 8.62972 19.7727 8.2194 19.373C7.80907 18.9733 7.57778 18.4316 7.57605 17.8664V16.7997C7.57778 16.2344 7.80907 15.6927 8.2194 15.293C8.62972 14.8934 9.18574 14.6681 9.766 14.6665H17.4304C18.0106 14.6648 18.5667 14.4396 18.977 14.0399C19.3873 13.6402 19.6186 13.0985 19.6203 12.5333V11.4665C19.6186 10.9013 19.3873 10.3596 18.977 9.95992C18.5667 9.56023 18.0106 9.33496 17.4304 9.33333H14.1457C14.7259 9.3317 15.282 9.10644 15.6923 8.70675C16.1026 8.30705 16.3339 7.76541 16.3356 7.20013V6.13342C16.334 5.5681 16.1027 5.02641 15.6924 4.62667C15.282 4.22692 14.726 4.00163 14.1457 4H17.4304C18.2923 3.99891 19.1459 4.16327 19.9425 4.48368C20.7392 4.80409 21.4632 5.27428 22.0733 5.86738C22.6833 6.46048 23.1675 7.16486 23.498 7.94029C23.8285 8.71572 23.9989 9.547 23.9996 10.3866V13.5997C24.0017 14.4408 23.8331 15.2739 23.5037 16.0513C23.1743 16.8287 22.6905 17.535 22.08 18.1297C21.4695 18.7244 20.7445 19.1957 19.9465 19.5166C19.1485 19.8375 18.2933 20.0016 17.4299 19.9996H17.4304Z" fill="url(#log_g2)"/><path d="M23.904 9.33333H14.1454C14.7257 9.33165 15.2817 9.10633 15.692 8.70659C16.1023 8.30686 16.3335 7.76519 16.3352 7.19991V6.13321C16.3334 5.56796 16.1022 5.02635 15.6919 4.62666C15.2816 4.22698 14.7257 4.00169 14.1454 4H17.4301C18.9822 4.00034 20.4839 4.53619 21.669 5.51249C22.8541 6.48879 23.6459 7.84244 23.904 9.33333Z" fill="url(#log_g3)"/><path d="M9.85434 9.33333H6.56963C5.98937 9.33496 5.43335 9.56023 5.02303 9.95992C4.6127 10.3596 4.38141 10.9013 4.37968 11.4665V12.5332C4.38141 13.0985 4.6127 13.6402 5.02303 14.0399C5.43335 14.4396 5.98937 14.6648 6.56963 14.6665H2.18995C1.60969 14.6648 1.05367 14.4396 0.643346 14.0399C0.23302 13.6402 0.00173092 13.0985 0 12.5332V11.4665C0.00173092 10.9013 0.23302 10.3596 0.643346 9.95992C1.05367 9.56023 1.60969 9.33496 2.18995 9.33333H9.85434Z" fill="url(#log_g4)"/><path d="M14.1457 14.6667L17.4304 14.6667C18.0106 14.665 18.5666 14.4398 18.977 14.0401C19.3873 13.6404 19.6186 13.0987 19.6203 12.5335V11.4668C19.6186 10.9014 19.3874 10.3597 18.9771 9.96C18.5667 9.56026 18.0107 9.33496 17.4304 9.33333H21.8101C22.3903 9.33496 22.9464 9.56026 23.3567 9.96C23.7671 10.3597 23.9983 10.9014 24 11.4668V12.5335C23.9983 13.0987 23.767 13.6404 23.3567 14.0401C22.9463 14.4398 22.3903 14.665 21.8101 14.6667L14.1457 14.6667Z" fill="url(#log_g5)"/><defs><linearGradient id="log_g0" x1="0.000549316" y1="6.83193" x2="16.4241" y2="6.84878" gradientUnits="userSpaceOnUse"><stop stop-color="#205CFF"/><stop offset="1" stop-color="#21CCFE"/></linearGradient><linearGradient id="log_g1" x1="9.85455" y1="17.3333" x2="5.33634" y2="17.3333" gradientUnits="userSpaceOnUse"><stop stop-color="#08072E" stop-opacity="0.502"/><stop offset="1" stop-color="#5A5973" stop-opacity="0"/></linearGradient><linearGradient id="log_g2" x1="23.7204" y1="17.6637" x2="7.57607" y2="17.5794" gradientUnits="userSpaceOnUse"><stop stop-color="#205CFF"/><stop offset="1" stop-color="#21CCFE"/></linearGradient><linearGradient id="log_g3" x1="14.1454" y1="6.66667" x2="18.6637" y2="6.66667" gradientUnits="userSpaceOnUse"><stop stop-color="#08072E" stop-opacity="0.502"/><stop offset="1" stop-color="#5A5973" stop-opacity="0"/></linearGradient><linearGradient id="log_g4" x1="0" y1="11.9999" x2="5.47901" y2="11.9999" gradientUnits="userSpaceOnUse"><stop stop-color="#08072E" stop-opacity="0.8"/><stop offset="1" stop-color="#5A5973" stop-opacity="0"/></linearGradient><linearGradient id="log_g5" x1="24" y1="12" x2="18.521" y2="12" gradientUnits="userSpaceOnUse"><stop stop-color="#08072E" stop-opacity="0.8"/><stop offset="1" stop-color="#5A5973" stop-opacity="0"/></linearGradient></defs></svg>
