<svg width="24" height="24" viewBox="0 0 24 24" fill="none" xmlns="http://www.w3.org/2000/svg"><g clip-path="url(#tar_clip)"><path d="M14.8126 21.7389L12.2357 19.162L14.8237 16.574L17.4006 19.1509C17.5773 19.3189 17.7187 19.5205 17.8164 19.7439C17.9141 19.9672 17.9662 20.2079 17.9697 20.4516C17.9731 20.6954 17.9279 20.9374 17.8365 21.1635C17.7451 21.3895 17.6095 21.595 17.4377 21.768C17.2658 21.9409 17.0611 22.0777 16.8356 22.1704C16.6101 22.2632 16.3684 22.3099 16.1246 22.3079C15.8808 22.306 15.6398 22.2553 15.4159 22.1589C15.1919 22.0626 14.9895 21.9224 14.8204 21.7468L14.8126 21.7389ZM1.73287 7.90335C1.73178 7.54102 1.83835 7.18653 2.03906 6.88487C2.23977 6.58322 2.52557 6.34798 2.86019 6.20903C3.19482 6.07007 3.56318 6.03366 3.91854 6.10441C4.27389 6.17516 4.60022 6.34988 4.85611 6.6064L8.19735 9.94765L10.1901 11.9404L12.2331 13.9834L9.64637 16.5701L2.2694 9.19311C2.09924 9.0242 1.96423 8.82326 1.87214 8.60189C1.78005 8.38052 1.73272 8.14311 1.73287 7.90335Z" fill="url(#tar_g0)"/><path d="M16.5684 9.65082L19.6145 6.61205C19.7838 6.43812 19.9859 6.29959 20.2092 6.20451C20.4325 6.10943 20.6724 6.05969 20.9151 6.0582C21.1564 6.05818 21.3952 6.10611 21.6178 6.1992C21.8403 6.29229 22.0421 6.42869 22.2115 6.60047C22.3809 6.77224 22.5144 6.97598 22.6044 7.19982C22.6943 7.42366 22.7389 7.66315 22.7354 7.90436C22.7347 8.38911 22.5418 8.8538 22.1991 9.19667L19.153 12.2428L16.5684 9.65082Z" fill="url(#tar_g1)"/><path d="M7.06617 21.7368C6.7239 21.3938 6.53168 20.929 6.53168 20.4445C6.53168 19.9599 6.7239 19.4952 7.06617 19.1522L9.94524 16.2749L11.9363 14.2811L13.9782 12.2365L16.5628 14.8211L9.65447 21.7368C9.31148 22.079 8.84672 22.2713 8.36217 22.2713C7.87761 22.2713 7.41285 22.079 7.06986 21.7368H7.06617Z" fill="url(#tar_g2)"/><path d="M7.06885 21.7368C6.72659 21.3938 6.53436 20.929 6.53436 20.4445C6.53436 19.9599 6.72659 19.4952 7.06885 19.1522L9.94793 16.2749L11.939 14.2811L13.9809 12.2365L16.5655 14.8211L9.65716 21.7368C9.31417 22.079 8.8494 22.2713 8.36485 22.2713C7.8803 22.2713 7.41554 22.079 7.07254 21.7368H7.06885Z" fill="url(#tar_g3)"/><path d="M2.20614 16.1062C2.20552 15.8661 2.2525 15.6282 2.34437 15.4064C2.43624 15.1846 2.57117 14.9832 2.74136 14.8138L5.31893 12.2362L7.8978 14.8229L5.3235 17.3972C5.06766 17.6514 4.74238 17.8242 4.38858 17.894C4.03477 17.9638 3.66823 17.9274 3.33505 17.7894C3.00187 17.6514 2.71693 17.418 2.51606 17.1185C2.31519 16.819 2.20736 16.4668 2.20614 16.1062ZM15.2735 2.27517C15.5275 2.01516 15.8536 1.83722 16.2097 1.76428C16.5658 1.69133 16.9356 1.72673 17.2714 1.86591C17.5404 1.97698 17.7789 2.15075 17.967 2.37273C18.1552 2.5947 18.2875 2.85845 18.353 3.14197L18.3987 3.56232C18.3991 4.04732 18.2074 4.51273 17.8654 4.85665L10.4897 12.2323L7.89845 9.65018L15.2735 2.27517Z" fill="url(#tar_g4)"/><path d="M6.09087 3.92612C6.03634 3.66163 6.04133 3.38833 6.1055 3.12602C6.16966 2.86371 6.29138 2.61896 6.46184 2.40951C6.6323 2.20006 6.84722 2.03117 7.09103 1.91506C7.33484 1.79895 7.60143 1.73855 7.87147 1.73822L7.90085 1.73757C8.38507 1.73908 8.849 1.93221 9.19126 2.27475L12.2336 5.31705L9.6462 7.90441L6.58628 4.84448C6.33471 4.59353 6.16244 4.27418 6.09087 3.92612ZM19.1425 17.4007L12.2316 10.4898L14.819 7.90245L16.8633 9.94675L18.858 11.9414L21.7299 14.8134C22.0738 15.1557 22.2676 15.6206 22.2687 16.1058C22.2698 16.5911 22.0781 17.0569 21.7358 17.4007C21.3934 17.7446 20.9285 17.9384 20.4433 17.9395C19.9581 17.9406 19.4923 17.7489 19.1484 17.4066L19.1425 17.4007Z" fill="url(#tar_g5)"/><path d="M19.7538 15.4256C19.4108 15.7679 18.9461 15.9601 18.4615 15.9601C17.977 15.9601 17.5122 15.7679 17.1692 15.4256L16.2766 14.5302L14.2827 12.5391L12.2344 10.4945L14.8191 7.90992L19.7538 12.8373C20.0961 13.1803 20.2883 13.6451 20.2883 14.1296C20.2883 14.6142 20.0961 15.0789 19.7538 15.4219V15.4256Z" fill="url(#tar_g6)"/><path d="M17.4009 2.73616C17.7431 3.07915 17.9354 3.54391 17.9354 4.02847C17.9354 4.51302 17.7431 4.97778 17.4009 5.32077L14.5218 8.198L12.5307 10.1919L10.4889 12.2365L7.90426 9.65185L14.8126 2.73616C15.1556 2.39389 15.6203 2.20167 16.1049 2.20167C16.5894 2.20167 17.0542 2.39389 17.3972 2.73616H17.4009Z" fill="url(#tar_g7)"/><path d="M2.73321 7.06888C3.07621 6.72661 3.54097 6.53439 4.02552 6.53439C4.51007 6.53439 4.97484 6.72661 5.31783 7.06888L8.19506 9.94796L10.1889 11.939L12.2335 13.9809L9.64891 16.5655L2.73321 9.65719C2.39095 9.3142 2.19872 8.84943 2.19872 8.36488C2.19872 7.88033 2.39095 7.41557 2.73321 7.07257V7.06888Z" fill="url(#tar_g8)"/></g><defs><linearGradient id="tar_g0" x1="2.52063" y1="7.26259" x2="8.67662" y2="2.80883" gradientUnits="userSpaceOnUse"><stop stop-color="#205CFF"/><stop offset="1" stop-color="#21CCFE"/></linearGradient><linearGradient id="tar_g1" x1="22.1374" y1="6.71377" x2="15.8783" y2="13.0663" gradientUnits="userSpaceOnUse"><stop stop-color="#205CFF"/><stop offset="1" stop-color="#21CCFE"/></linearGradient><linearGradient id="tar_g2" x1="15.5898" y1="13.3002" x2="5.43449" y2="23.6323" gradientUnits="userSpaceOnUse"><stop stop-color="#205CFF"/><stop offset="1" stop-color="#21CCFE"/></linearGradient><linearGradient id="tar_g3" x1="12.0214" y1="11.7548" x2="11.7905" y2="15.4978" gradientUnits="userSpaceOnUse"><stop stop-color="#08072E" stop-opacity="0.502"/><stop offset="1" stop-color="#5A5973" stop-opacity="0"/></linearGradient><linearGradient id="tar_g4" x1="17.8691" y1="2.26611" x2="2.74199" y2="17.3933" gradientUnits="userSpaceOnUse"><stop stop-color="#205CFF"/><stop offset="1" stop-color="#21CCFE"/></linearGradient><linearGradient id="tar_g5" x1="6.97994" y1="3.02854" x2="24.0702" y2="9.36889" gradientUnits="userSpaceOnUse"><stop stop-color="#205CFF"/><stop offset="1" stop-color="#21CCFE"/></linearGradient><linearGradient id="tar_g6" x1="11.8479" y1="11.5566" x2="14.8519" y2="11.742" gradientUnits="userSpaceOnUse"><stop stop-color="#274F64"/><stop offset="1" stop-color="#545454" stop-opacity="0"/></linearGradient><linearGradient id="tar_g7" x1="12.4483" y1="12.7181" x2="12.6792" y2="8.97517" gradientUnits="userSpaceOnUse"><stop stop-color="#274F64"/><stop offset="1" stop-color="#545454" stop-opacity="0"/></linearGradient><linearGradient id="tar_g8" x1="12.7152" y1="12.0214" x2="8.97222" y2="11.7905" gradientUnits="userSpaceOnUse"><stop stop-color="#274F64"/><stop offset="1" stop-color="#545454" stop-opacity="0"/></linearGradient><clipPath id="tar_clip"><rect width="24" height="24" fill="white"/></clipPath></defs></svg>
