<svg width="24" height="24" viewBox="0 0 24 24" fill="none" xmlns="http://www.w3.org/2000/svg"><path d="M3 14.9896C3 14.9953 3 15.0007 3 15.0062C2.99962 16.5849 3.41533 18.1358 4.20529 19.5029C4.99525 20.87 6.13161 22.0051 7.5 22.7939C8.8684 22.0051 10.0047 20.87 10.7947 19.5029C11.5847 18.1358 12.0004 16.5849 12 15.0062C11.9999 12.6209 11.0517 10.3334 9.3639 8.6467C7.67608 6.96005 5.38693 6.01247 3 6.01241V14.9896Z" fill="url(#tc_g0)"/><path d="M3 14.9896C3 14.9953 3 15.0007 3 15.0062C2.99962 16.5849 3.41533 18.1358 4.20529 19.5029C4.99525 20.87 6.13161 22.0051 7.5 22.7939C8.8684 22.0051 10.0047 20.87 10.7947 19.5029C11.5847 18.1358 12.0004 16.5849 12 15.0062C11.9999 12.6209 11.0517 10.3334 9.3639 8.6467C7.67608 6.96005 5.38693 6.01247 3 6.01241V14.9896Z" fill="url(#tc_g1)"/><g opacity="0.9"><path d="M21 0C18.6131 0 16.3239 0.947558 14.636 2.63422C12.9482 4.32088 12 6.60849 12 8.99379V14.9896C12 14.9953 12 15.0007 12 15.0062C12.0004 16.5849 11.5847 18.1358 10.7947 19.5029C10.0047 20.87 8.8684 22.0051 7.5 22.7939C8.86801 23.5837 10.42 23.9997 11.9999 24C13.5798 24.0003 15.132 23.5849 16.5003 22.7955C17.8686 22.0062 19.0048 20.8708 19.7947 19.5034C20.5846 18.1361 21.0003 16.585 21 15.0062C21 15.0007 21 14.9951 21 14.9896V0Z" fill="url(#tc_g2)"/></g><defs><linearGradient id="tc_g0" x1="11.451" y1="20.562" x2="13.3367" y2="6.18778" gradientUnits="userSpaceOnUse"><stop stop-color="#205CFF"/><stop offset="1" stop-color="#21CCFE"/></linearGradient><linearGradient id="tc_g1" x1="12" y1="20.4949" x2="4.71022" y2="18.7268" gradientUnits="userSpaceOnUse"><stop stop-color="#08072E" stop-opacity="0.502"/><stop offset="1" stop-color="#5A5973" stop-opacity="0"/></linearGradient><linearGradient id="tc_g2" x1="19.623" y1="2.232" x2="1.67258" y2="11.8344" gradientUnits="userSpaceOnUse"><stop stop-color="#205CFF"/><stop offset="1" stop-color="#21CCFE"/></linearGradient></defs></svg>
