<?xml version="1.0" encoding="UTF-8"?><svg id="katman_2" xmlns="http://www.w3.org/2000/svg" xmlns:xlink="http://www.w3.org/1999/xlink" viewBox="0 0 32.24 31.56"><defs><linearGradient id="tai_g1" x1="0" y1="6.65" x2="16.86" y2="6.65" gradientUnits="userSpaceOnUse"><stop offset="0" stop-color="#f800ff"/><stop offset="1" stop-color="#33b1ff"/></linearGradient><linearGradient id="tai_g2" x1="1.37" y1="23.13" x2="14.68" y2="23.13" xlink:href="#tai_g1"/><linearGradient id="tai_g3" x1="15.38" y1="24.91" x2="32.24" y2="24.91" xlink:href="#tai_g1"/><linearGradient id="tai_g4" x1="18.16" y1="8.43" x2="31.47" y2="8.43" xlink:href="#tai_g1"/><linearGradient id="tai_g5" x1="26.73" y1="10.59" x2="17.5" y2="4.17" gradientUnits="userSpaceOnUse"><stop offset="0" stop-color="#fff" stop-opacity="0"/><stop offset="1" stop-color="#000" stop-opacity=".4"/></linearGradient><linearGradient id="tai_g6" x1="581.81" y1="-3565.03" x2="572.59" y2="-3571.45" gradientTransform="translate(3574.73 587.82) rotate(-90)" xlink:href="#tai_g5"/><linearGradient id="tai_g7" x1="4150.17" y1="-2994.98" x2="4140.95" y2="-3001.41" gradientTransform="translate(4154.71 -2975.11) rotate(-180)" xlink:href="#tai_g5"/><linearGradient id="tai_g8" x1="3569.64" y1="575.76" x2="3560.42" y2="569.34" gradientTransform="translate(596.34 -3541.27) rotate(90)" xlink:href="#tai_g5"/></defs><g id="Layer_1"><path fill="url(#tai_g1)" d="M9.92,12.8c5.31-1.76,8.19-7.49,6.43-12.8L6.75,3.17s-.01,0-.02,0C3.3,4.32.73,7.2,0,10.74c2.7,2.41,6.48,3.19,9.92,2.05Z"/><path fill="url(#tai_g2)" d="M1.37,15.21l3.17,9.6s0,.01,0,.02c1.14,3.43,4.02,6,7.56,6.73,2.41-2.7,3.19-6.48,2.05-9.92-1.76-5.31-7.49-8.19-12.8-6.43Z"/><path fill="url(#tai_g3)" d="M22.33,18.77c-5.31,1.76-8.19,7.49-6.43,12.8l9.6-3.17s.01,0,.02,0c3.44-1.14,6-4.02,6.73-7.56-2.7-2.41-6.48-3.19-9.92-2.05Z"/><path fill="url(#tai_g4)" d="M31.47,16.35l-3.17-9.6s0-.01,0-.02C27.15,3.3,24.27.73,20.72,0c-2.41,2.7-3.19,6.48-2.05,9.92,1.76,5.31,7.49,8.19,12.8,6.43Z"/><path fill="url(#tai_g5)" d="M31.47,16.35l-3.17-9.6s0-.01,0-.02c-.96-2.9-3.16-5.16-5.95-6.24-2.13,3.27-2.7,7.37-1.45,11.15.43,1.29,1.04,2.47,1.8,3.52,2.5,1.66,5.71,2.21,8.79,1.19Z"/><path fill="url(#tai_g6)" d="M16.35,0L6.75,3.17s-.01,0-.02,0C3.84,4.14,1.57,6.34.49,9.13c3.27,2.13,7.37,2.7,11.15,1.45,1.29-.43,2.47-1.04,3.52-1.8C16.82,6.29,17.36,3.07,16.35,0Z"/><path fill="url(#tai_g7)" d="M1.37,15.21l3.17,9.6s0,.01,0,.02c.96,2.9,3.16,5.16,5.95,6.24,2.13-3.27,2.7-7.37,1.45-11.15-.43-1.29-1.04-2.47-1.8-3.52-2.5-1.66-5.71-2.21-8.79-1.19Z"/><path fill="url(#tai_g8)" d="M15.91,31.54l9.6-3.17s.01,0,.02,0c2.9-.96,5.16-3.16,6.24-5.95-3.27-2.13-7.37-2.7-11.15-1.45-1.29.43-2.47,1.04-3.52,1.8-1.66,2.5-2.21,5.71-1.19,8.79Z"/></g></svg>
