<?xml version="1.0" encoding="UTF-8"?><svg id="katman_2" xmlns="http://www.w3.org/2000/svg" xmlns:xlink="http://www.w3.org/1999/xlink" viewBox="0 0 32.15 32.15"><defs><linearGradient id="xr_g1" x1="30.35" y1="19.79" x2="7.78" y2="20.97" gradientUnits="userSpaceOnUse"><stop offset="0" stop-color="#f800ff"/><stop offset=".53" stop-color="#33b1ff"/></linearGradient><linearGradient id="xr_g2" x1="32.02" y1="18.91" x2="25.64" y2="22.48" gradientUnits="userSpaceOnUse"><stop offset="0" stop-color="#fff" stop-opacity="0"/><stop offset="1" stop-color="#000" stop-opacity=".4"/></linearGradient><linearGradient id="xr_g3" x1="18.37" y1="1.31" x2="15.13" y2="26.67" gradientUnits="userSpaceOnUse"><stop offset="0" stop-color="#f800ff"/><stop offset="1" stop-color="#33b1ff"/></linearGradient><linearGradient id="xr_g4" x1="1.61" y1="16.43" x2="14.12" y2="21.26" xlink:href="#xr_g3"/><linearGradient id="xr_g5" x1="-.77" y1="13.68" x2="8.16" y2="23.48" xlink:href="#xr_g2"/><linearGradient id="xr_g6" x1="18.58" y1="21.75" x2="14.9" y2="36.74" xlink:href="#xr_g3"/></defs><g id="Layer_1"><path fill="url(#xr_g1)" d="M21.89,19.86c-.72,1.6-.38,3.49.76,4.82l.02.03,3.06,3.57c.18.21.5.24.71.06,3.49-2.95,5.71-7.35,5.71-12.28,0-1.53-.22-3.01-.63-4.41-.1-.35-.54-.47-.81-.23l-7.31,6.4c-.65.57-1.16,1.26-1.5,2.03Z"/><path fill="url(#xr_g2)" d="M32.15,16.07c0-.96-.09-1.9-.26-2.81l-5.22,4.57c-.45.39-.83.85-1.14,1.34-1.06,1.71-.91,3.98.39,5.51,0,0,.01.02.02.03l1.92,2.24c2.65-2.86,4.29-6.67,4.29-10.88Z"/><path fill="url(#xr_g3)" d="M14.81,15.86c.15.17.31.33.47.48,1.83,1.63,4.64,1.51,6.5-.08l8.34-7.13c.18-.15.23-.41.12-.62C27.54,3.45,22.21,0,16.07,0c-4.18,0-7.99,1.6-10.85,4.22-.2.18-.21.5-.03.7l9.61,10.93Z"/><path fill="url(#xr_g4)" d="M13.91,22.31c.74-1.61.39-3.53-.76-4.88h0S3.87,6.6,3.87,6.6c-.21-.24-.6-.24-.79.02-1.94,2.65-3.09,5.92-3.09,9.45,0,5.43,2.7,10.22,6.82,13.13l5.6-4.9c.64-.56,1.15-1.25,1.49-2Z"/><path fill="url(#xr_g5)" d="M1.79,8.72C.86,10.52.25,12.5.06,14.61c-.01.19-.02.38-.03.57l-.03,1.22c.05,1.54.29,3.04.72,4.46.02.07.05.14.07.22.09.27.19.54.29.81.88,2.25,2.25,4.25,3.98,5.88l3.31-2.9c.7-.62,1.25-1.36,1.63-2.18.81-1.77.42-3.86-.84-5.34h0S1.79,8.72,1.79,8.72Z"/><path fill="url(#xr_g6)" d="M21,26.28c-.86-.98-2.04-1.62-3.22-1.82s-2.31.19-3.19.94l-5.24,4.48c-.28.24-.22.69.11.83,2.02.92,4.25,1.43,6.61,1.43,2.75,0,5.33-.7,7.59-1.92.28-.15.34-.53.13-.77l-2.79-3.17Z"/></g></svg>
